<svg xmlns="http://www.w3.org/2000/svg" xmlns:xlink="http://www.w3.org/1999/xlink" width="500" zoomAndPan="magnify" viewBox="0 0 375 374.999991" height="500" preserveAspectRatio="xMidYMid meet" version="1.0"><defs><clipPath id="83a4c71f21"><path d="M 4.808594 4.808594 L 370.058594 4.808594 L 370.058594 370.058594 L 4.808594 370.058594 Z M 4.808594 4.808594 " clip-rule="nonzero"/></clipPath><clipPath id="6425daf5de"><path d="M 4.808594 4.808594 L 290 4.808594 L 290 291 L 4.808594 291 Z M 4.808594 4.808594 " clip-rule="nonzero"/></clipPath></defs><g clip-path="url(#83a4c71f21)"><path fill="#f9973e" d="M 187.46875 4.878906 C 86.628906 4.878906 4.878906 86.621094 4.878906 187.46875 C 4.878906 288.3125 86.628906 370.058594 187.46875 370.058594 C 288.304688 370.058594 370.058594 288.304688 370.058594 187.46875 C 370.058594 86.628906 288.3125 4.878906 187.46875 4.878906 Z M 187.46875 4.878906 " fill-opacity="1" fill-rule="nonzero"/></g><g clip-path="url(#6425daf5de)"><path fill="#fca84c" d="M 90.867188 290.757812 C 200.441406 290.757812 289.269531 201.933594 289.269531 92.363281 C 289.277344 81.679688 288.425781 71.066406 286.71875 60.519531 C 285.007812 49.972656 282.464844 39.632812 279.082031 29.5 C 272.160156 25.472656 265 21.921875 257.605469 18.84375 C 250.210938 15.761719 242.644531 13.183594 234.910156 11.105469 C 227.175781 9.027344 219.335938 7.464844 211.394531 6.425781 C 203.453125 5.382812 195.476562 4.867188 187.46875 4.878906 C 86.628906 4.878906 4.878906 86.628906 4.878906 187.46875 C 4.867188 195.71875 5.414062 203.929688 6.519531 212.105469 C 7.625 220.28125 9.28125 228.34375 11.484375 236.292969 C 13.6875 244.242188 16.421875 252.007812 19.683594 259.585938 C 22.941406 267.164062 26.703125 274.484375 30.960938 281.550781 C 50.457031 287.707031 70.421875 290.777344 90.867188 290.757812 Z M 90.867188 290.757812 " fill-opacity="1" fill-rule="nonzero"/></g><path fill="#ffffff" d="M 207.636719 296.144531 C 207.402344 297.253906 207.011719 298.308594 206.46875 299.308594 C 205.929688 300.304688 205.253906 301.207031 204.453125 302.007812 C 203.648438 302.8125 202.75 303.484375 201.75 304.027344 C 200.753906 304.570312 199.699219 304.957031 198.585938 305.195312 C 191.175781 306.34375 183.761719 306.34375 176.347656 305.195312 C 175.238281 304.957031 174.183594 304.570312 173.183594 304.027344 C 172.1875 303.484375 171.285156 302.8125 170.484375 302.007812 C 169.679688 301.207031 169.007812 300.304688 168.464844 299.308594 C 167.921875 298.308594 167.535156 297.253906 167.296875 296.144531 C 166.160156 288.734375 166.160156 281.324219 167.296875 273.910156 C 167.535156 272.800781 167.925781 271.746094 168.46875 270.75 C 169.007812 269.753906 169.683594 268.851562 170.484375 268.050781 C 171.289062 267.246094 172.1875 266.574219 173.1875 266.03125 C 174.183594 265.488281 175.238281 265.097656 176.347656 264.859375 C 183.761719 263.722656 191.175781 263.722656 198.585938 264.859375 C 199.695312 265.097656 200.75 265.488281 201.75 266.03125 C 202.746094 266.574219 203.648438 267.246094 204.449219 268.050781 C 205.253906 268.851562 205.925781 269.753906 206.46875 270.75 C 207.011719 271.746094 207.398438 272.800781 207.636719 273.910156 C 208.777344 281.324219 208.777344 288.734375 207.636719 296.144531 Z M 228.414062 192.503906 C 208.929688 204.519531 204.050781 210.699219 204.050781 222.714844 L 204.050781 226.417969 C 204.050781 227.035156 204.019531 227.648438 203.957031 228.261719 C 203.898438 228.875 203.804688 229.484375 203.6875 230.089844 C 203.566406 230.695312 203.414062 231.292969 203.234375 231.882812 C 203.054688 232.472656 202.847656 233.050781 202.613281 233.621094 C 202.375 234.191406 202.113281 234.746094 201.820312 235.292969 C 201.53125 235.835938 201.214844 236.363281 200.871094 236.875 C 200.527344 237.386719 200.160156 237.882812 199.769531 238.359375 C 199.378906 238.835938 198.964844 239.292969 198.527344 239.726562 C 198.09375 240.164062 197.636719 240.578125 197.160156 240.96875 C 196.683594 241.359375 196.1875 241.726562 195.675781 242.066406 C 195.160156 242.410156 194.632812 242.726562 194.089844 243.019531 C 193.546875 243.308594 192.988281 243.570312 192.417969 243.808594 C 191.847656 244.042969 191.269531 244.25 190.679688 244.429688 C 190.089844 244.609375 189.492188 244.757812 188.886719 244.878906 C 188.28125 245 187.671875 245.089844 187.058594 245.148438 C 186.445312 245.210938 185.832031 245.238281 185.214844 245.238281 C 184.597656 245.238281 183.980469 245.210938 183.367188 245.148438 C 182.753906 245.089844 182.144531 245 181.539062 244.878906 C 180.933594 244.757812 180.335938 244.609375 179.742188 244.429688 C 179.152344 244.25 178.574219 244.042969 178.003906 243.804688 C 177.433594 243.570312 176.875 243.304688 176.332031 243.015625 C 175.785156 242.722656 175.257812 242.40625 174.746094 242.0625 C 174.230469 241.722656 173.734375 241.355469 173.257812 240.960938 C 172.78125 240.570312 172.324219 240.15625 171.890625 239.71875 C 171.453125 239.285156 171.039062 238.828125 170.648438 238.351562 C 170.253906 237.875 169.886719 237.378906 169.546875 236.863281 C 169.203125 236.351562 168.886719 235.824219 168.59375 235.277344 C 168.304688 234.734375 168.039062 234.175781 167.804688 233.605469 C 167.566406 233.035156 167.359375 232.457031 167.179688 231.867188 C 167.003906 231.277344 166.851562 230.675781 166.730469 230.070312 C 166.613281 229.46875 166.519531 228.855469 166.460938 228.242188 C 166.398438 227.628906 166.371094 227.011719 166.371094 226.394531 L 166.371094 217.835938 C 166.371094 198.015625 175.792969 184.699219 198.207031 171.382812 C 220.320312 158.386719 227.453125 149.617188 227.453125 136.300781 C 227.453125 120.707031 214.457031 110.621094 195.292969 110.621094 C 174.609375 110.621094 161.3125 120.515625 155.613281 138.488281 C 155.265625 139.566406 154.828125 140.609375 154.300781 141.617188 C 153.777344 142.621094 153.175781 143.578125 152.492188 144.484375 C 151.808594 145.386719 151.054688 146.230469 150.230469 147.007812 C 149.40625 147.789062 148.519531 148.492188 147.578125 149.125 C 146.636719 149.757812 145.648438 150.304688 144.613281 150.773438 C 143.582031 151.238281 142.515625 151.617188 141.417969 151.90625 C 140.320312 152.195312 139.207031 152.390625 138.078125 152.492188 C 136.949219 152.597656 135.820312 152.605469 134.6875 152.519531 C 121.515625 151.5625 112.578125 138.546875 116.59375 125.972656 C 126.890625 93.820312 155.691406 73.292969 195.3125 73.292969 C 235.917969 73.292969 268.0625 99.601562 268.0625 135.65625 C 268.0625 159.371094 256.03125 175.613281 228.414062 192.503906 Z M 228.414062 192.503906 " fill-opacity="1" fill-rule="nonzero"/></svg>